
<svg xmlns="http://www.w3.org/2000/svg" version="1.1" xmlns:xlink="http://www.w3.org/1999/xlink" preserveAspectRatio="none" x="0px" y="0px" width="1920px" height="1080px" viewBox="0 0 1920 1080">
<defs>
<g id="Layer0_0_FILL">
<path fill="#FFFFFF" stroke="none" d="
M 492 142.35
Q 491.7 139.65 491.5 138.3 491.15 135.95 490.6 134.35 489.5 131.4 487.7 127.25 485.6 122.65 484.55 120.3 484.3 119.7 484.2 119.7 483.3 119.75 482.85 119 482.5 118.05 482.25 117.65 475.85 106.35 469.2 97.2 462.3 87.55 451.7 76.45 449.35 74.05 443.3 68.6 436.25 62.4 434.5 61.05 422.65 51.95 407.75 43.65 402.2 40.55 394.95 38 390 36.3 381.55 34 374.6 32.05 363.35 29.45 356 27.8 349.4 26.65 343.6 25.6 334.85 24.45 323.45 22.95 317.8 22.35 313.9 21.9 305.9 21.4 295.55 20.85 292 20.8
L 265.6 21.1
Q 262.55 21.2 259.55 21.4
L 245.9 22.6
Q 241.1 22.95 238.75 23.25 234.3 23.85 226.35 25.1 215.65 26.7 214.45 26.95 209.4 28 192.5 31.8 185.4 33.35 182.3 34.2 180.8 34.55 177.5 35.95 176.6 36.3 176.6 36.8 176.35 38.8 175.4 41 174.8 42.4 173.45 44.85 170.9 49.5 162.65 64.85
L 51.65 272.75 136.55 256.95 93.15 487.8
Q 91.6 495.95 91.5 496.4
L 78.65 564.6
Q 77.85 568.7 76.35 577 75.55 581.2 73.45 591.05 75.85 591.85 76.8 589.4 78.45 586.05 79.25 584.35
L 270.5 182.95
Q 273.9 176.3 275.7 172.65 269.25 173.3 266.85 173.45 265.1 173.6 255.7 174.1
L 245.3 174.7
Q 234.5 175.3 229.15 175.65
L 193.3 177.45
Q 192.85 177.7 192.6 177.7
L 189.9 177.7 231.3 108.15
Q 231.7 107.5 232.4 107.4
L 256.6 105.55
Q 271.35 104.65 271.65 104.65 283.4 104.05 286.35 104.05 291.55 104.1 301.9 104 311 104 317.45 104.65 328.85 105.75 330.1 105.9 336.9 106.7 341.55 107.75 358.1 111.65 369.45 118.3 378.2 123.5 384 130.25 391.1 138.75 395.25 148.8 398.1 155.7 399.4 159.3 401.5 165.25 402.4 170.25 403.6 176.95 403.85 182.25 404 184.9 403.85 188.55 403.8 190.65 403.6 194.85 403.3 201.55 402.95 204.8 402.15 212.45 401.1 219 399.45 229.55 396.3 238.8 392.65 249.25 390.8 253.35 384.25 267.8 379.6 276.1 372.35 289.2 364.25 298.95 359.85 304.3 357.65 306.95 353.8 311.55 350.8 314.75 346.25 319.6 338.85 325.85 331.2 332.2 322.4 337.25 311.6 343.5 301.85 346.7 292.85 349.6 282.05 352.45 278.4 353.4 271 354.6 266.15 355.4 260.05 356.15
L 243.4 358
Q 235.65 358.85 231.75 359.2 230.1 359.35 226.8 359.55 223.45 359.75 221.8 359.9 220.9 360 220.35 361.05 218.15 365.5 213.9 374.45
L 176.55 451.4 178.5 451.05
Q 184.9 450.35 188.1 450.1 189.35 450 203.45 449.2
L 242 446.1
Q 242.75 446.05 254.4 444.9
L 263 444.3
Q 267.5 443.9 276.45 443.1 277.35 443 279.5 442.95 281.45 442.9 282.5 442.75 284.95 442.45 289.8 441.8 294 441.2 297.05 440.55 309 437.95 316.2 435.65 329.2 431.55 340.45 427 346.55 424.5 358.35 418.35 365.75 414.45 373.55 409.55 387.8 400.65 398.65 391.25 400.7 389.5 404.85 385.95 408.45 382.85 410.85 380.5 418.2 373.25 427.9 362.55 433.55 356.35 438.3 350 445.45 340.3 451.15 331.3 456.35 323.1 463.2 310.65 465.85 305.9 469.35 297.75 475.3 283.95 477.45 277.75 481.85 265.35 485 253.4 487.05 245.55 490.15 229.55 491.2 224.15 492.6 213.5 493.35 207.55 493.85 200.65 494.4 192.3 494.45 186.6 494.5 182.05 494.15 168.45 493.75 160 493.55 155.75 493.5 153.9 493.25 152 492.2 143.75 492 142.35 Z"/>
</g>
</defs>

<g transform="matrix( 1, 0, 0, 1, 0,0) ">
<use xlink:href="#Layer0_0_FILL"/>
</g>
</svg>
